<svg width="100" height="100" xmlns="http://www.w3.org/2000/svg">
  <defs>
    <pattern id="circuit" patternUnits="userSpaceOnUse" width="100" height="100">
      <path d="M10,10 L30,10 L30,30 L50,30 L50,10 L70,10 L70,50 L90,50 L90,70 L70,70 L70,90 L50,90 L50,70 L30,70 L30,50 L10,50 Z" 
            fill="none" 
            stroke="#004A8C" 
            stroke-width="0.8"
            stroke-linecap="round"
            stroke-linejoin="round"/>
      <circle cx="10" cy="10" r="2" fill="#004A8C" />
      <circle cx="30" cy="30" r="2" fill="#004A8C" />
      <circle cx="50" cy="10" r="2" fill="#004A8C" />
      <circle cx="70" cy="50" r="2" fill="#004A8C" />
      <circle cx="90" cy="70" r="2" fill="#004A8C" />
      <circle cx="70" cy="90" r="2" fill="#004A8C" />
      <circle cx="30" cy="50" r="2" fill="#004A8C" />
      <circle cx="50" cy="70" r="2" fill="#004A8C" />
    </pattern>
  </defs>
  <rect width="100%" height="100%" fill="url(#circuit)" />
</svg> 