<svg id="Layer_1" data-name="Layer 1" xmlns="http://www.w3.org/2000/svg" viewBox="0 0 158.15 154.12"><defs><style>.cls-1{fill:rgba(255,255,255,0.5);}</style></defs><path class="cls-1" d="M59.84,104.67c-.33,4.76-.61,9.06-.92,13.36-.36,5,2.09,8.41,6.55,10.09a41.44,41.44,0,0,0,10.13,2.41c24.34,2.5,45.89-3.52,63.47-21.3,3.63-3.67,7.34-7.26,11-10.9,1.88-1.88,3.83-4.59,6.65-2.1,3.24,2.86.23,5.08-1.64,7-12.39,12.9-25.33,25.08-42.46,31,1.8,5,3.81,9.54,4.95,14.31.38,1.59-1.48,3.72-2.31,5.6-1.44-1.27-3.66-2.29-4.18-3.87-4.53-13.63-4.43-13.33-18.58-12.8-8.25.3-16.71.24-24.77-1.26C56.14,134,51.57,127.26,52,115.56c.17-4.48.76-9,1.13-13.43.31-3.74,2.25-5.13,6-4.81a74.57,74.57,0,0,0,11.48.12c6.1-.42,9.47-3.56,10.27-9,.74-5.12-1.45-9.25-7-11.24a48.5,48.5,0,0,0-13.1-2.65c-4.23-.26-6-1.58-5.79-6C55.31,60,55.14,60,47.42,57c-8.5-3.33-11.57-11.06-6.66-19,7.5-12.18,15.57-24,23.66-35.83C65.31.81,67.9.68,69.7,0c.12,2,1.1,4.62.21,6-6.85,10.83-14.07,21.42-21.16,32.1a21.65,21.65,0,0,0-2.48,4.31c-1.33,3.68-.46,6.59,3.55,7.94,2.52.86,5,1.76,7.61,2.39,4.31,1.06,6.16,3.51,5.25,8a60,60,0,0,0-.6,6.1c3.87.87,7.62,1.48,11.24,2.56,10.31,3.09,15.56,10.13,14.6,19.23-1,9.71-7.21,15.13-18.45,16C66.51,104.86,63.53,104.67,59.84,104.67Z"/><path class="cls-1" d="M0,85C.67,69.51,8.42,57.56,21.56,48.9c1.15-.76,3.45.22,5.22.39a32.88,32.88,0,0,1-1.36,5.16c-.34.78-1.54,1.19-2.34,1.79C3.22,71,1.71,96.16,19.59,113.21c2.08,2,6.38,3.89,3.05,7.46s-5.71-.44-7.8-2.42C5.51,109.4.24,98.63,0,85Z"/><path class="cls-1" d="M21.08,84.15c.31-7.75,4.71-15.43,12.82-20.83,1.35-.9,4.63-1,5.5-.08,2.28,2.45.12,4.37-1.95,6.05-10.12,8.19-12.23,18.84-5.6,28.44,1.3,1.89,3.38,3.29,4.51,5.27.83,1.45.68,3.45,1,5.21-1.9-.06-4.31.6-5.62-.32C25.36,103.46,21.07,94.25,21.08,84.15Z"/></svg>