<svg id="Layer_1" data-name="Layer 1" xmlns="http://www.w3.org/2000/svg" viewBox="0 0 160.88 155.6"><defs><style>.cls-1{fill:rgba(255,255,255,0.5);}</style></defs><path class="cls-1" d="M118.74,121.31c-1.39,11-5.19,14.37-16.56,15a4.33,4.33,0,0,0-2.7,1.37c-3,3.51-5.82,7.16-8.74,10.74-4.24,5.18-9.23,8.59-16.36,6.64-5.77-1.58-9.23-6-10.9-14C51.19,137.9,50.08,137,47,126.77c-8.71-.36-14.06-4.85-15.33-13.53-10.49-2.08-17-7.57-15.54-15,1.19-6.15-1.26-9.47-4.63-13.63A52,52,0,0,1,76.1,5.93c3.46,1.8,5.93,1.8,9.44,0a52.14,52.14,0,0,1,60.2,83.45c-2.68,2.71-5.3,5.49-8.09,8.07-3.32,3.07-5.5,6.11-5.79,11.23C131.45,116.2,125.77,120,118.74,121.31ZM72.25,99.1c11.13,1,13.91,4.24,15.71,18.36,5.41,1.17,9.5,4,11.89,9.36.54,1.23,3.65,2.51,4.84,2,2.35-1,5.46-2.93,5.89-5,.48-2.3-.93-5.91-2.77-7.63C96.06,105.26,84,94.67,72,84c-2-1.77-4.59-3.67-1.88-6.51,2.41-2.52,4.47-.42,6.36,1.27L111,109.48c.74.66,1.44,1.36,2.21,2,3.52,2.86,7.63,2.89,10.26.09,2.85-3,2.59-7.15-1.07-10.47C110.72,90.51,99,80.06,87.25,69.55,86,68.44,84.51,67.44,83.79,66c-.55-1.08-.63-3.3.06-3.91a5.63,5.63,0,0,1,4.31-.84c1.13.22,2.07,1.55,3,2.44,10.31,9.34,20.57,18.73,31,28,3.3,3,7.75,2.79,10.18-.2,2.77-3.39,2.47-7-.69-9.75C116.41,68.55,101,55.51,85.48,42.24c-2,2.18-3.42,3.75-4.84,5.34-5.32,5.91-10.47,12-16,17.69-7.87,8.11-18.57,9.6-26,4C33,65,32.38,59.58,37,54.31c2.18-2.49,4.56-4.81,6.83-7.22L75.36,13.48C55.53.81,28.33,6.89,14.9,26.7,2.14,45.53,5.7,73.43,22.4,85.37,32.15,74.61,40.79,77,48.89,87.69,61.7,82.39,69.2,86,72.25,99.1Zm69.29-16c20-18.85,15.35-54.14-9.07-69.22C116.12,3.81,90.63,5.41,77.63,21,67.07,33.75,55.08,45.26,43.72,57.31c-3.6,3.82-3.25,6.24,1.82,7.57a12.35,12.35,0,0,0,8.4-1A43.58,43.58,0,0,0,63.4,56C69.27,49.93,75,43.69,80.54,37.35c2.87-3.26,5.37-3.63,8.8-.72,15,12.73,30.25,25.23,45.24,38C137.24,76.91,139.11,80.11,141.54,83.13Zm-61,28.32c-.83-.94-2.15-3.67-4.19-4.41s-5.72-.45-7.23.95A109.75,109.75,0,0,0,56,122.74c-1.21,1.65-1.22,5.41-.13,7.2s4.19,3.12,6.5,3.25C66.33,133.42,80.6,117.12,80.54,111.45ZM64.78,97.59c-.7-.86-1.82-3.39-3.7-4.24s-5.48-1-6.77.18A135.61,135.61,0,0,0,40,109.13c-1.12,1.44-1,5.15.17,6.74a9.41,9.41,0,0,0,6.49,3.29C50.77,119.4,64.83,103.33,64.78,97.59Zm29.71,32.94c-1.74-1.79-3.26-4.51-5.47-5.28A8.47,8.47,0,0,0,82,126.56a71.16,71.16,0,0,0-9.35,10.24c-2.68,3.33-2.47,6.91.77,9.72s6.8,2.46,9.78-.55c3.14-3.17,6.12-6.52,9-10C93.09,134.8,93.42,133.08,94.49,130.53Zm-63.8-23.11c3.6-3.57,6.71-6.35,9.45-9.46,3.47-3.92,3.28-6.63-.17-9.88-3.64-3.43-6.52-3.32-10.27.49C28,90.34,25.92,92,24.81,94.14s-2,5-1.21,6.69C24.75,103.18,27.6,104.7,30.69,107.42Z"/></svg>