<svg id="Layer_1" data-name="Layer 1" xmlns="http://www.w3.org/2000/svg" viewBox="0 0 170.16 154.41"><defs><style>.cls-1{fill:rgba(255,255,255,0.5);}</style></defs><path class="cls-1" d="M143.24,59.93H125.45c-2.59,10.48-5.12,20.51-7.5,30.57a5.2,5.2,0,0,0,.85,3.08c5.55,10.77-2,23.68-14.11,23.78-11.43.08-22.86,0-34.3,0-2.7,0-5.8.06-5.66-3.78.12-3.62,3.17-3.17,5.62-3.18,10.93,0,21.87,0,32.8,0,7.31,0,10.67-3.86,9.93-11.78-1.35-.11-2.78-.31-4.22-.31-18.22,0-36.45.12-54.68-.07-9-.09-16.77,2.38-23.62,8.49-7.41,6.6-15.22,12.78-23.11,18.81-1.53,1.17-5.23,1.82-6.25.88-2.84-2.61,0-4.6,2-6.28,8.83-7.25,17.72-14.44,26.54-21.7,5.89-4.86,12.79-6.72,20.57-7.06-17.8-29.05-16.82-56.14,9.77-79C77.93-2.92,103.34-3.75,123.27,8.27,142.73,20,153.4,42.74,149.53,64.94a21,21,0,0,0,3.16-1.1c5.68-3.1,10.21-2.76,14,1.14a12.07,12.07,0,0,1,1.46,15.09,96.19,96.19,0,0,1-7.1,8.93c-10.33,12.31-20.85,24.45-31,36.9-8.3,10.18-18.26,15.6-31.84,14.79-12.39-.73-24.86.15-37.27-.27-7.36-.25-13.26,1.69-18,7.42A30.5,30.5,0,0,1,36.53,154c-1.25.82-3.44.22-5.2.26.1-1.64-.46-3.87.4-4.84C40,140.11,48.46,132,62.81,133.3c13,1.17,26.16.09,39.25.31,7.67.12,14-2.47,18.9-8.2,13.46-15.73,26.78-31.58,40.13-47.39.64-.75,1.6-1.74,1.5-2.49-.28-2.11-.66-4.44-1.84-6.08-.4-.56-3.84.12-5,1.2-7.44,7.08-14.62,14.42-21.89,21.67-.94.94-1.76,2.37-2.87,2.66a6.65,6.65,0,0,1-4.8-.41c-.66-.43-.62-3.28.13-4.25a50.2,50.2,0,0,1,7.2-7.52C140.57,76.81,141.86,68.58,143.24,59.93Zm-26.6-7.49c.83-16.16-7.65-41.67-18.42-43.89V52.44Zm-26.06-44c-11.88,3.74-19.63,31.88-18,44h18Zm-14.8,3.9c-13.78,1.88-30.71,24-29.41,40H64.73C65.73,38.23,68.25,24.74,75.78,12.34Zm37.36,0c7.94,12.59,10,26.24,11.16,40.05h18.6C142.52,35,127.12,14,113.14,12.31Zm-15,79c3.22,0,6.2.31,9.06-.13a5.77,5.77,0,0,0,3.89-2.8,76.75,76.75,0,0,0,5.79-28.48H98.17ZM64.07,60.08H45.83a48.6,48.6,0,0,0,10.31,26.2c4.41,5.65,7.16,6.45,13.86,4.34C68,80.44,66.06,70.33,64.07,60.08ZM90.58,60H70.82c2.32,9.62,4.39,18.69,6.78,27.68A5.4,5.4,0,0,0,81,91c3,.51,6.16.16,9.55.16Z"/></svg>