<svg id="Layer_1" data-name="Layer 1" xmlns="http://www.w3.org/2000/svg" viewBox="0 0 151.62 151.49"><defs><style>.cls-1{fill:rgba(255,255,255,0.5);}</style></defs><path class="cls-1" d="M115.33,110.45c7.1,7,14.27,14.12,21.42,21.21,4,4,8,8,11.95,11.94,1.89,1.9,4.39,4,1.82,6.67s-4.75.33-6.66-1.59L114,118.83c-1.16-1.15-2.38-2.23-3.77-3.53-16.39,13.68-35,19.36-56,15.64a63.88,63.88,0,0,1-39.95-24c-21-26.57-18.56-64.88,5.53-88.11C44.48-5,82.88-6.3,108.5,15.32S142.4,77.86,115.33,110.45ZM7,66.19A59.12,59.12,0,1,0,65.87,6.92,59.27,59.27,0,0,0,7,66.19Z"/><path class="cls-1" d="M66.33,32.19c7.28,0,14.57-.31,21.82.17a10,10,0,0,1,6.7,3.75c5,7.21,9.25,14.87,14,22.24,1.71,2.69,1.5,4.69-.69,7q-19.07,20.2-37.95,40.58c-3,3.18-5.33,3.1-8.23,0Q43.07,85.52,24,65.31c-2.19-2.32-2.38-4.3-.65-7,4.71-7.37,9-15,13.95-22.24A10,10,0,0,1,44,32.36C51.42,31.89,58.88,32.19,66.33,32.19ZM80.86,58.13c-1-3-1.75-5.37-2.57-7.67C74,38.37,74,38.34,61.09,39.15c-1.17.07-3,.5-3.34,1.26-2.31,5.7-4.32,11.53-6.56,17.72ZM66.08,96.85,80.22,65.69H51.89ZM31.57,58.34c3.79,0,6.58.14,9.35-.07,1.14-.08,2.9-.64,3.22-1.44,2.25-5.68,4.21-11.48,6.26-17.24l-1.17-1.26c-2.37.93-5.65,1.19-7,2.92C38.46,46.34,35.43,52,31.57,58.34ZM81.7,39.62c2,5.61,3.78,10.89,5.85,16.06a4.55,4.55,0,0,0,3,2.53,93.66,93.66,0,0,0,10.1.12c-3.29-5.33-6.44-9.74-8.85-14.52C89.59,39.52,86.71,38.08,81.7,39.62Zm-2,44.11,1,.72q8.55-9.14,17.11-18.28l-1-1.74c-3.17.95-7.74.92-9.24,3C84.1,72.33,82.2,78.25,79.69,83.73ZM34,65.83,51.18,84.08c.28-1.39.49-1.77.39-2q-2.16-5-4.4-9.92C43.69,64.46,43.68,64.46,34,65.83Z"/></svg>