<svg id="Layer_1" data-name="Layer 1" xmlns="http://www.w3.org/2000/svg" viewBox="0 0 156.11 150.92"><defs><style>.cls-1{fill:rgba(255,255,255,0.5);}</style></defs><path class="cls-1" d="M9.26,64.63C13.86,20.69,49.47-1.08,80.29,0c30.55,1.11,62.42,24,66.2,64.8,1.82,0,3.89-.46,5.59.14,1.55.54,2.7,2.23,4,3.41-1.33,1.13-2.5,2.72-4,3.26s-3.57.13-6.1.13c-1.66,8.27-3.32,16.45-4.94,24.64-2.35,11.84-4.6,23.7-7,35.53-2.37,11.6-10.35,18.63-22.28,18.77q-33.81.39-67.61,0c-12.25-.16-20-7.45-22.42-19.85-3.58-18.33-7.25-36.65-10.65-55-.56-3.06-1.48-4.33-4.68-4.11-2.67.18-6.43.8-6.37-3.38.06-4,3.65-3.46,6.44-3.54C7.4,64.78,8.36,64.69,9.26,64.63ZM57.32,80.29c6.49,1,12.2,2.57,17.92,2.58s11.71-2,17.6-2.24c6.84-.32,13.73.11,20.6.45,6.37.31,12.73,1.1,19.11,1.32,2.84.09,5-1.49,5.09-4.78.16-7.2,1.45-14.6.23-21.56C132.17,23.43,98.67,1.5,65.74,8.22c-35,7.13-55.51,43.42-47.2,70.19.89,2.86,1.89,4.66,4.8,4.36,8.92-.94,17.81-2.12,27-3.24,0-11.23.16-21.63-.16-32,0-1.54-2.3-3-3.54-4.52-1.31,1.59-3.17,3-3.8,4.82-.92,2.64,1.21,7.36-3.79,7s-2.89-5-3.3-8a2.68,2.68,0,0,1,0-.49c.59-6,5.08-10.35,10.7-10.38A10.72,10.72,0,0,1,57.19,46.19c.34,5.61.11,11.25.12,16.88S57.32,74.24,57.32,80.29Zm40.59,29.08a20.22,20.22,0,0,0-2.4-.31c-8.29,0-16.57,0-24.86,0-2.7,0-6.3.55-6.26-3.66,0-4,3.51-3.21,6-3.23,9.44-.08,18.88-.05,28.33,0,6.59,0,7.38.94,6.53,7.64a22,22,0,0,1-.85,3.86c-4,12.74-17.08,21.23-29.95,19.43A27.89,27.89,0,0,1,50.4,106.2c-.15-6.42,0-12.85,0-19.81L21.11,91c2.54,13.11,5.06,27.06,8,40.92,1.6,7.48,6.88,11.68,15.16,11.78q33.79.36,67.59,0c8.7-.1,13.52-4.81,15.32-13.44,1.27-6.15,2.54-12.3,3.74-18.47,1.43-7.35,2.8-14.73,4-21-8.43-1.13-16.18-2.57-24-3.08-6.66-.44-13.53-.61-20.05.53-8.59,1.51-17,2.54-25.54.38-2.47-.62-5.06-.78-7.84-1.19,0,7.3-.42,14.09.09,20.82.75,9.8,9.89,17.67,20,17.92A20.08,20.08,0,0,0,97.91,109.37Z"/></svg>