<svg xmlns="http://www.w3.org/2000/svg" viewBox="0 0 476.37 95.57"><defs><style>.cls-1{fill:#0076c0;}.cls-2{fill:#5096d1;}.cls-3{fill:#b5ccea;}</style></defs><g id="Layer_2" data-name="Layer 2"><g id="Layer_1-2" data-name="Layer 1"><path class="cls-1" d="M106.82,1.78h17.29v20.7l17.21-20.7h21.17L143.42,22.56l20.39,34H144.35L132.26,34.65l-8.07,8.92v13H106.82V1.78Zm63.4,54.74h18.61l2.4-7.6H210.3l2.4,7.6h18.61L210.84,1.78H191.15Zm36.52-19.85H195l6-19.31Zm30.1,19.85h16V34.34c0-1.24,0-2.29,0-3.14s-.06-1.67-.11-2.44-.1-1.59-.16-2.44-.13-1.9-.23-3.14l2.22,4.57c.6,1.24,1.16,2.36,1.71,3.37s1.1,2,1.67,3l2,3.49,11.11,18.92h18.65V1.78h-16.2V23.26c.05,1.55.09,2.83.11,3.84s.07,1.94.12,2.79.12,1.73.19,2.64.17,2,.27,3.37L272.4,32c-.49-1.06-1-2.05-1.43-3l-1.47-2.91c-.52-1-1.16-2.21-1.94-3.6L255.23,1.79H236.85V56.52Zm60.79-10.39c.62.78,1.36,1.63,2.21,2.56a26.77,26.77,0,0,0,3.06,2.83,28,28,0,0,0,4.22,2.75,28.45,28.45,0,0,0,5.7,2.25,38.7,38.7,0,0,0,6.43,1.28,58.17,58.17,0,0,0,6.28.35c.78,0,2,0,3.61-.11a32.83,32.83,0,0,0,5.43-.78,32.1,32.1,0,0,0,6.17-2.09,18.55,18.55,0,0,0,5.74-4.07,20.19,20.19,0,0,0,3.37-5,16.3,16.3,0,0,0,1.51-7.37,14.51,14.51,0,0,0-2.09-8.22,15.81,15.81,0,0,0-5.51-5A28.69,28.69,0,0,0,336,22.68c-2.9-.64-5.87-1.23-8.92-1.74a29.4,29.4,0,0,1-5.55-1.4,2.81,2.81,0,0,1-2-2.79,2.68,2.68,0,0,1,.54-1.7,3.9,3.9,0,0,1,1.44-1.13,6.83,6.83,0,0,1,2-.58,16.67,16.67,0,0,1,2.21-.16,33.09,33.09,0,0,1,4.93.43,18.1,18.1,0,0,1,5.23,1.59A11,11,0,0,1,338.59,17a16.11,16.11,0,0,1,1.51,1.74L351,9.69c-1-1-2.06-2.07-3.22-3.1a22.4,22.4,0,0,0-4.85-3.1,31.91,31.91,0,0,0-7.6-2.6A43,43,0,0,0,326.36,0a41.5,41.5,0,0,0-7.21.62,26.65,26.65,0,0,0-6.47,2,20.28,20.28,0,0,0-5.31,3.49,14.91,14.91,0,0,0-3.64,5.16,16.41,16.41,0,0,0-1.55,7.05,14.17,14.17,0,0,0,1.63,7.17,16,16,0,0,0,3.95,4.65,17.55,17.55,0,0,0,4.89,2.75,46.32,46.32,0,0,0,4.42,1.4c.57.16,1.54.36,2.91.62s2.82.54,4.34.85l4.3.89a27.14,27.14,0,0,1,2.72.66,5.17,5.17,0,0,1,1.74.89,4.22,4.22,0,0,1,.89,1,2.65,2.65,0,0,1,.35.93,5.13,5.13,0,0,1,0,.54A2.72,2.72,0,0,1,333.28,43a8,8,0,0,1-2.48,1.24,11.32,11.32,0,0,1-2.75.5c-.91.05-1.54.08-1.9.08a23.16,23.16,0,0,1-7.68-1.24,14.41,14.41,0,0,1-3-1.24,12.13,12.13,0,0,1-2-1.43A12.25,12.25,0,0,1,312,39.35a17,17,0,0,1-1.16-1.74Zm58.7,10.39h18.61l2.4-7.6h19.07l2.4,7.6h18.61L397,1.78H377.26Zm36.52-19.85H381.07l6-19.31Zm29.38,9.46c.62.78,1.36,1.63,2.21,2.56a26.77,26.77,0,0,0,3.06,2.83,28,28,0,0,0,4.22,2.75,28.45,28.45,0,0,0,5.7,2.25,38.7,38.7,0,0,0,6.43,1.28,58.17,58.17,0,0,0,6.28.35c.78,0,2,0,3.61-.11a32.83,32.83,0,0,0,5.43-.78,32.1,32.1,0,0,0,6.17-2.09,18.55,18.55,0,0,0,5.74-4.07,20.19,20.19,0,0,0,3.37-5A16.3,16.3,0,0,0,476,38.77a14.51,14.51,0,0,0-2.09-8.22,15.81,15.81,0,0,0-5.51-5,28.69,28.69,0,0,0-7.75-2.87c-2.9-.64-5.87-1.23-8.92-1.74a29.4,29.4,0,0,1-5.55-1.4,2.81,2.81,0,0,1-2-2.79,2.68,2.68,0,0,1,.54-1.7,3.9,3.9,0,0,1,1.44-1.13,6.83,6.83,0,0,1,2-.58,16.67,16.67,0,0,1,2.21-.16,33.09,33.09,0,0,1,4.93.43,18.1,18.1,0,0,1,5.23,1.59A11,11,0,0,1,463.19,17a16.11,16.11,0,0,1,1.51,1.74l10.85-9.07c-1-1-2.06-2.07-3.22-3.1a22.56,22.56,0,0,0-4.84-3.1,31.91,31.91,0,0,0-7.6-2.6A43,43,0,0,0,451,0a41.5,41.5,0,0,0-7.21.62,26.65,26.65,0,0,0-6.47,2A20.28,20.28,0,0,0,432,6.09a14.91,14.91,0,0,0-3.64,5.16,16.41,16.41,0,0,0-1.55,7.05,14.17,14.17,0,0,0,1.63,7.17,16,16,0,0,0,3.95,4.65,17.55,17.55,0,0,0,4.89,2.75,46.32,46.32,0,0,0,4.42,1.4c.57.16,1.54.36,2.91.62s2.82.54,4.34.85l4.3.89a27.14,27.14,0,0,1,2.72.66,5.17,5.17,0,0,1,1.74.89,4.22,4.22,0,0,1,.89,1,2.42,2.42,0,0,1,.34.93,5.13,5.13,0,0,1,0,.54A2.72,2.72,0,0,1,457.88,43a8,8,0,0,1-2.48,1.24,11.32,11.32,0,0,1-2.75.5c-.91.05-1.54.08-1.9.08a23.16,23.16,0,0,1-7.68-1.24,14.41,14.41,0,0,1-3-1.24,12.13,12.13,0,0,1-2-1.43,12.25,12.25,0,0,1-1.44-1.55,17,17,0,0,1-1.16-1.74Z"/><polygon points="110.59 83.59 129.32 83.59 129.32 80.14 110.59 80.14 110.59 73.37 130.85 73.37 130.85 69.93 106.81 69.93 106.81 94.97 131.82 94.97 131.82 91.53 110.59 91.53 110.59 83.59"/><polygon points="163.88 69.93 160.09 69.93 160.09 94.97 181.03 94.97 181.03 91.53 163.88 91.53 163.88 69.93"/><polygon points="212.25 83.59 230.97 83.59 230.97 80.14 212.25 80.14 212.25 73.37 232.5 73.37 232.5 69.93 208.47 69.93 208.47 94.97 233.47 94.97 233.47 91.53 212.25 91.53 212.25 83.59"/><path d="M284,86.54c-.24.39-.58.9-1,1.54a8.94,8.94,0,0,1-1.76,1.79,10.75,10.75,0,0,1-2.76,1.53,11,11,0,0,1-4,.63,11.19,11.19,0,0,1-4.31-.78A9.75,9.75,0,0,1,267,89.17a8.84,8.84,0,0,1-2-3,9.94,9.94,0,0,1-.68-3.65,10.24,10.24,0,0,1,.74-3.94,8.82,8.82,0,0,1,2.09-3.06,9.85,9.85,0,0,1,3.21-2,12,12,0,0,1,8.41.06A7.84,7.84,0,0,1,282.16,76a10.38,10.38,0,0,1,.72.95l.56.9.37.61,3.26-1.82-.4-.66c-.22-.36-.47-.75-.75-1.16a11.67,11.67,0,0,0-1-1.31,13.46,13.46,0,0,0-1.39-1.3A13.23,13.23,0,0,0,281.62,71a15.48,15.48,0,0,0-3.42-1.32,16,16,0,0,0-9.36.51,14,14,0,0,0-4.44,2.73,12.69,12.69,0,0,0-4.06,9.44,14.08,14.08,0,0,0,.79,4.56A12.5,12.5,0,0,0,268,94.35a15.14,15.14,0,0,0,6.35,1.22,18.65,18.65,0,0,0,3-.24,14.11,14.11,0,0,0,3-.83A14.51,14.51,0,0,0,283.11,93a12.67,12.67,0,0,0,2.53-2.35,12.47,12.47,0,0,0,1-1.27c.23-.35.45-.72.68-1.11l.4-.69L284.32,86Z"/><polygon points="311.45 73.37 322.04 73.37 322.04 94.97 325.75 94.97 325.75 73.37 335.87 73.37 335.87 69.93 311.45 69.93 311.45 73.37"/><path d="M382.67,84.14a11,11,0,0,0,1.72-.5,5.94,5.94,0,0,0,1.65-1,6.12,6.12,0,0,0,2-2.72,8.57,8.57,0,0,0,.53-2.87,7.6,7.6,0,0,0-.89-3.64,6.26,6.26,0,0,0-2.47-2.55,7.28,7.28,0,0,0-2.89-.87q-1.41-.12-2.64-.12h-17V95h3.78V84.45h9.69L385.45,95h5.16l-9.56-10.61A10.32,10.32,0,0,0,382.67,84.14Zm1-4.43a3.49,3.49,0,0,1-2.13,1.09,23,23,0,0,1-3.23.21H366.45V73.37h13.33a19.47,19.47,0,0,1,2,.11,3.05,3.05,0,0,1,1.6.67,3.51,3.51,0,0,1,.92,1.15,3.68,3.68,0,0,1,.39,1.73,4.9,4.9,0,0,1-.23,1.43A3.45,3.45,0,0,1,383.7,79.71Z"/><rect x="417.29" y="69.93" width="3.71" height="25.05"/><path d="M473,86l-.35.57c-.23.39-.58.9-1,1.54a9.22,9.22,0,0,1-1.76,1.79,10.75,10.75,0,0,1-2.76,1.53,11,11,0,0,1-3.95.63,11.19,11.19,0,0,1-4.31-.78,9.75,9.75,0,0,1-3.18-2.08,8.65,8.65,0,0,1-2-3,9.9,9.9,0,0,1-.68-3.65,10.06,10.06,0,0,1,.75-3.94,8.93,8.93,0,0,1,2.08-3.06,9.85,9.85,0,0,1,3.21-2,12,12,0,0,1,8.41.06A7.84,7.84,0,0,1,470.85,76a9.17,9.17,0,0,1,.72.95c.17.27.36.57.55.89l.37.61,3.28-1.83-.42-.66c-.23-.36-.47-.75-.75-1.15a9.76,9.76,0,0,0-1-1.31,13.7,13.7,0,0,0-1.39-1.31A13,13,0,0,0,470.3,71a15.48,15.48,0,0,0-3.42-1.32,16,16,0,0,0-9.37.51,13.59,13.59,0,0,0-4.44,2.74,12.41,12.41,0,0,0-3,4.18A12.79,12.79,0,0,0,449,82.34a14.35,14.35,0,0,0,.79,4.56,12.4,12.4,0,0,0,2.5,4.29,12.77,12.77,0,0,0,4.35,3.15A15.11,15.11,0,0,0,463,95.56a18.65,18.65,0,0,0,3-.24,13.94,13.94,0,0,0,3-.83A14.51,14.51,0,0,0,471.79,93a12.67,12.67,0,0,0,2.53-2.35,13.71,13.71,0,0,0,1-1.26c.23-.35.46-.73.69-1.12l.4-.69Z"/><polygon class="cls-2" points="93.41 50.82 93.41 72.02 23.14 1.74 44.48 1.74 93.41 50.82"/><path class="cls-1" d="M93.41,45.63,93.34,4.77a2.88,2.88,0,0,0-3.08-3H49.66Z"/><path class="cls-3" d="M93.32,77.09V90.47c0,4.26-2.47,5.29-5.5,2.29L1.75,7.21c-3-3-2-5.47,2.25-5.47H18Z"/></g></g></svg>