<svg xmlns="http://www.w3.org/2000/svg" viewBox="0 0 184.05 96.21">
	<defs>
		<style>.cls-1{fill:rgba(172, 172, 172,0.5);}</style>
	</defs>
	<title>Kansas</title>
	<g id="Layer_2" data-name="Layer 2">
		<g id="Layer_2-2" data-name="Layer 2">
			<path class="cls-1" d="M3,0s99,3,160.17.38a4.67,4.67,0,0,1,1.38.93,1.66,1.66,0,0,0,1,.68c.34.09.53.14.53.48s-.39.91.14.82.92-.44,1.16-.29-.1.82.62,1.06a4.44,4.44,0,0,0,1.78.28c.43,0,.72-.24.67-.67s-.38-.58.2-.67a3.39,3.39,0,0,1,1.1,0c.23,0,.69.11.78.37a1.38,1.38,0,0,1-.11.75c-.08.17-.22.35-.17.55s.25.22.41.24a3.32,3.32,0,0,1,.55.09.79.79,0,0,1,.62.78c0,.47-.52.54-.86.66s-.56.42-.35.77.73.2,1-.06a.63.63,0,0,1,.55-.19.37.37,0,0,1,.27.47,2.65,2.65,0,0,1-.26.5,1.19,1.19,0,0,1-.38.45.91.91,0,0,1-.53.21c-.23,0-.31-.25-.46-.38s-.82-.4-1-.05a1,1,0,0,0-.07.6,2.74,2.74,0,0,0,.07.5c.06.18.16.39,0,.56a1.78,1.78,0,0,1-.7.35,2.91,2.91,0,0,0-.6.27,1.75,1.75,0,0,0-.42.29,2.85,2.85,0,0,0-.16.3,1.29,1.29,0,0,0-.07.55,4.73,4.73,0,0,0,0,.54,2.38,2.38,0,0,1,.05.26.51.51,0,0,0,0,.22.16.16,0,0,1,0,.15.46.46,0,0,1-.19.26,1.59,1.59,0,0,1-.63.26,2.66,2.66,0,0,0-.28,0,.53.53,0,0,0-.4.35,1.45,1.45,0,0,0-.06.62.83.83,0,0,0,.35.57,1.55,1.55,0,0,0,.59.32,1,1,0,0,1,.81.58,1,1,0,0,1,0,.35,1.62,1.62,0,0,0,0,.58c0,.18.2.26.35.33s.41.14.61.21.35.16.53.24a1.2,1.2,0,0,1,.54.32,2.32,2.32,0,0,1,.39.54,1.29,1.29,0,0,1,.17.5c0,.23,0,.44.32.42s.83-.49,1.15-.1a.58.58,0,0,1,.11.59,1.15,1.15,0,0,1-.22.22c-.06.06-.1.13-.16.19a1,1,0,0,0-.14,1.09,2.11,2.11,0,0,0,.31.52,5.58,5.58,0,0,0,.39.56,2.17,2.17,0,0,0,.55.45,1.35,1.35,0,0,1,.42.24c.09.1.08.28.12.4a1.62,1.62,0,0,1,0,.49c0,.15,0,.29,0,.45s0,.28.17.34a1.79,1.79,0,0,0,.86,0,1,1,0,0,1,.43,0c.15,0,.23.21.28.34s0,.59.32.76a.82.82,0,0,0,.83,0c.21-.14.36-.42.59-.52a.61.61,0,0,1,.73.2c.21.24.07.67.46.74a1.46,1.46,0,0,0,.51,0c.2,0,.32-.16.5,0l.91,22.5,1,30.3.68,15.1S90.91,98.21,0,94.94Z"/>
		</g>
	</g>
</svg>
